<?xml version="1.0" standalone="no"?>
<!DOCTYPE svg PUBLIC "-//W3C//DTD SVG 20010904//EN"
 "http://www.w3.org/TR/2001/REC-SVG-20010904/DTD/svg10.dtd">
<svg version="1.0" xmlns="http://www.w3.org/2000/svg"
 width="686.000000pt" height="686.000000pt" viewBox="0 0 686.000000 686.000000"
 preserveAspectRatio="xMidYMid meet">
<metadata>
Created by potrace 1.14, written by Peter Selinger 2001-2017
</metadata>
<g transform="translate(0.000000,686.000000) scale(0.100000,-0.100000)"
fill="#000000" stroke="none">
<path d="M3399 6629 c-7 -4 -16 -6 -20 -4 -3 3 -24 -11 -45 -30 -21 -19 -35
-35 -31 -35 4 0 -1 -9 -11 -20 -15 -17 -18 -36 -18 -135 1 -70 -3 -115 -9
-116 -5 -1 -216 -2 -468 -3 l-458 -1 -26 -25 c-15 -14 -23 -18 -18 -10 4 8 -2
5 -14 -7 -11 -12 -21 -26 -21 -32 0 -5 -5 -11 -11 -13 -15 -5 -20 -98 -6 -122
6 -12 12 -23 13 -26 1 -3 5 -15 9 -27 4 -13 11 -23 16 -23 5 0 6 -7 3 -15 -4
-8 -1 -15 6 -15 7 0 10 -6 7 -14 -3 -8 1 -20 9 -27 8 -6 12 -14 10 -17 -3 -2
1 -20 9 -38 8 -19 12 -34 9 -34 -3 0 0 -9 6 -19 5 -11 12 -35 14 -53 3 -18 5
-33 6 -33 10 0 33 -207 33 -295 0 -67 -10 -197 -19 -242 -3 -18 -7 -42 -8 -53
-1 -11 -5 -26 -9 -32 -5 -7 -6 -17 -2 -22 3 -5 0 -13 -6 -16 -5 -4 -8 -13 -5
-21 3 -8 2 -14 -3 -14 -4 0 -8 -6 -9 -12 -1 -18 -7 -39 -19 -68 -6 -14 -9 -28
-6 -32 2 -5 0 -8 -6 -8 -6 0 -13 -16 -17 -35 -3 -19 -9 -35 -13 -35 -4 0 -15
-25 -26 -55 -22 -67 -12 -116 37 -167 17 -18 27 -26 24 -18 -4 8 -1 7 7 -3 9
-10 18 -18 21 -18 3 1 7 1 9 0 27 -8 112 -10 487 -12 l444 -2 0 -185 0 -185
-836 -1 c-460 -1 -853 2 -874 6 -63 13 -77 17 -119 36 -22 10 -43 17 -47 16
-5 -1 -8 2 -8 7 0 4 -19 21 -42 36 -44 29 -124 104 -98 91 13 -7 13 -6 0 6
-18 16 -24 38 -9 38 5 0 8 4 4 9 -3 6 1 13 8 18 15 9 62 74 62 86 0 4 5 11 11
15 16 11 108 208 113 245 1 4 1 8 2 10 0 1 2 9 4 17 2 8 7 26 10 40 4 14 9 39
11 55 7 46 11 235 4 235 -3 0 -7 9 -8 20 -4 44 -6 50 -14 50 -5 0 -7 4 -4 9 7
10 -16 61 -27 61 -5 0 -5 5 -2 10 3 6 1 10 -4 10 -6 0 -10 4 -9 9 2 5 -6 17
-17 26 -11 9 -13 13 -5 9 26 -14 -67 86 -109 117 -23 16 -41 27 -41 23 0 -3
-7 2 -16 10 -8 9 -19 14 -24 11 -5 -3 -10 0 -12 5 -2 6 -10 12 -18 14 -8 2
-22 6 -30 9 -57 22 -103 30 -160 28 -94 -4 -100 -4 -100 -14 0 -4 -5 -5 -10
-2 -6 4 -17 1 -25 -5 -8 -7 -15 -10 -15 -6 0 4 -15 -1 -32 -11 -18 -9 -36 -17
-40 -18 -4 0 -13 -6 -20 -12 -6 -7 -17 -13 -23 -13 -16 0 -145 -123 -145 -138
0 -7 -5 -12 -11 -12 -5 0 -8 -4 -5 -9 3 -4 -4 -17 -15 -27 -11 -10 -17 -24
-15 -31 3 -7 0 -13 -6 -13 -6 0 -8 -3 -5 -7 4 -3 3 -11 -2 -17 -10 -12 -12
-20 -28 -106 -10 -51 -10 -51 0 -102 5 -21 12 -38 17 -38 5 0 11 -8 14 -18 10
-31 119 -82 131 -62 3 5 12 7 20 3 8 -3 15 0 15 7 0 6 4 9 9 5 5 -3 16 2 24
10 9 8 20 15 26 15 5 0 13 5 17 12 5 7 2 9 -7 4 -8 -4 -6 -1 3 7 21 17 45 82
43 117 -2 45 50 129 90 145 37 15 50 17 100 17 58 1 75 -2 93 -19 7 -7 20 -13
28 -13 8 0 12 -4 9 -10 -3 -5 -2 -10 4 -10 12 0 43 -55 48 -85 8 -43 5 -101
-11 -217 -1 -10 -5 -21 -9 -24 -4 -4 -7 -13 -7 -20 0 -7 -5 -25 -12 -41 -6
-15 -11 -31 -10 -35 1 -5 -1 -8 -6 -8 -4 0 -14 -15 -21 -32 -8 -18 -20 -38
-25 -45 -30 -34 -36 -43 -30 -43 3 0 -10 -16 -30 -36 -20 -20 -36 -40 -36 -46
0 -5 -4 -7 -9 -4 -5 3 -15 -2 -22 -11 -12 -14 -12 -16 1 -8 8 4 4 -3 -10 -17
-14 -13 -28 -23 -31 -21 -4 1 -13 -5 -20 -14 -12 -14 -12 -16 0 -8 10 5 12 4
7 -3 -4 -7 -14 -12 -22 -12 -8 0 -12 -4 -9 -10 3 -5 0 -10 -8 -10 -8 0 -21 -8
-28 -17 -12 -15 -12 -16 1 -8 8 4 -10 -16 -40 -45 -30 -29 -48 -49 -40 -45 8
4 1 -6 -15 -21 -17 -16 -37 -38 -45 -48 -13 -18 -13 -19 0 -12 8 4 6 -1 -5
-11 -12 -10 -27 -27 -35 -37 -13 -18 -13 -19 0 -12 8 4 7 1 -3 -7 -10 -9 -20
-22 -21 -30 -1 -8 -8 -22 -15 -30 -7 -9 -14 -22 -15 -29 -1 -7 -7 -23 -14 -34
-6 -12 -8 -24 -5 -28 3 -3 1 -6 -5 -6 -7 0 -12 -8 -12 -18 0 -10 -5 -23 -12
-30 -7 -7 -9 -12 -5 -12 3 0 2 -12 -4 -27 -6 -16 -13 -36 -15 -45 -2 -10 -7
-28 -10 -40 -3 -13 -7 -36 -9 -53 -2 -16 -4 -30 -5 -30 -5 0 -12 -91 -12 -155
1 -109 14 -217 33 -267 5 -13 6 -23 4 -23 -3 0 1 -16 9 -35 8 -19 13 -35 10
-35 -3 0 1 -10 8 -22 7 -13 11 -29 10 -35 -2 -7 2 -13 8 -13 5 0 10 -9 10 -20
0 -11 5 -20 11 -20 6 0 9 -7 5 -15 -3 -8 -1 -15 5 -15 6 0 8 -4 5 -8 -3 -5 4
-18 14 -30 11 -12 20 -26 20 -33 0 -6 8 -18 18 -26 11 -10 12 -12 2 -8 -8 4
-6 -1 4 -9 11 -9 17 -16 13 -16 -9 0 6 -20 43 -58 14 -14 18 -22 10 -17 -8 4
-3 -4 13 -17 15 -14 27 -31 27 -37 0 -7 5 -9 10 -6 6 3 10 3 10 -2 0 -4 10
-19 21 -33 11 -14 17 -18 13 -10 -4 8 14 -7 40 -35 26 -27 45 -43 41 -35 -4 8
3 4 14 -10 11 -14 21 -21 21 -15 0 5 7 -1 16 -13 8 -12 20 -22 26 -22 6 0 17
-8 25 -17 8 -10 11 -12 7 -3 -5 8 7 3 25 -13 18 -15 37 -25 42 -21 5 3 9 0 9
-5 0 -6 9 -11 20 -11 11 0 20 -3 20 -8 0 -4 15 -13 32 -21 18 -7 47 -19 65
-27 17 -8 38 -14 47 -14 23 0 31 -27 15 -47 -12 -14 -12 -16 1 -9 9 4 8 1 -3
-7 -9 -8 -17 -19 -17 -26 0 -6 -5 -11 -11 -11 -5 0 -8 -4 -5 -9 3 -5 -1 -11
-9 -15 -8 -3 -15 -12 -15 -19 0 -8 -7 -20 -15 -27 -8 -7 -12 -16 -9 -21 3 -5
0 -9 -6 -9 -6 0 -9 -4 -5 -9 3 -5 1 -12 -3 -15 -5 -3 -8 -18 -6 -33 1 -15 2
-35 3 -44 1 -20 57 -82 87 -97 26 -14 94 -23 94 -13 0 4 9 7 20 8 12 1 30 12
41 25 11 13 18 16 14 8 -3 -8 0 -7 7 4 7 10 27 37 43 60 17 22 37 53 44 69 8
15 18 27 23 27 5 0 7 4 4 9 -3 5 1 12 10 15 8 3 12 10 9 16 -3 6 1 13 9 16 9
3 16 12 16 19 0 7 7 18 15 25 8 7 12 17 8 23 -3 6 -1 7 5 3 7 -4 12 -1 12 6 0
11 96 13 510 13 280 -1 512 -4 515 -7 9 -8 -24 -78 -37 -78 -5 0 -6 -4 -3 -10
3 -6 2 -10 -3 -10 -5 0 -16 -20 -25 -45 -11 -37 -12 -52 -3 -79 32 -92 110
-136 199 -112 15 5 27 12 27 18 0 5 4 7 9 4 8 -6 65 57 62 68 -1 4 8 16 21 27
13 11 16 17 8 13 -8 -4 -5 3 8 15 12 12 22 28 22 35 0 8 7 17 16 20 8 3 13 10
10 15 -3 5 1 12 10 15 9 4 14 9 11 12 -3 4 -1 12 6 20 25 28 33 40 40 57 3 9
12 17 19 18 7 1 235 2 506 3 491 2 492 2 492 -18 0 -21 -20 -60 -20 -41 0 6
-10 -10 -22 -35 -12 -25 -25 -47 -28 -50 -10 -8 -7 -90 3 -90 4 0 5 -4 2 -10
-3 -5 5 -21 19 -33 14 -13 23 -27 20 -30 -4 -3 5 -9 20 -13 14 -3 26 -10 26
-16 0 -5 4 -6 10 -3 5 3 10 2 10 -2 0 -18 99 0 112 19 4 7 8 10 8 6 0 -12 40
25 40 37 0 6 9 17 20 25 11 8 20 23 20 33 0 9 7 20 15 23 8 4 12 10 9 15 -3 5
0 9 5 9 6 0 11 7 11 15 0 9 7 18 15 21 8 4 12 10 9 15 -3 5 0 9 5 9 6 0 11 7
11 15 0 9 7 18 15 21 8 4 13 10 10 14 -3 5 3 13 12 19 10 6 14 11 10 11 -5 0
-1 8 9 18 16 16 51 17 423 18 223 1 408 3 411 5 3 1 16 3 30 4 14 2 27 4 30 5
15 5 104 23 123 24 9 0 17 3 17 6 0 6 7 8 48 12 9 0 20 5 23 10 3 5 16 10 27
11 12 1 22 5 22 10 0 4 4 6 8 3 5 -3 27 6 51 20 24 13 49 24 57 24 8 0 14 5
14 11 0 5 5 7 10 4 6 -3 10 -1 10 5 0 7 7 9 16 6 8 -3 12 -2 9 4 -3 6 -1 10 6
10 7 0 28 12 47 27 20 15 32 20 27 12 -5 -8 3 -3 17 11 41 39 59 54 92 72 17
9 27 17 21 18 -11 0 56 60 67 60 5 0 7 6 5 13 -1 6 4 11 11 10 6 -2 12 1 12 7
0 5 15 24 33 42 17 17 25 28 17 24 -12 -6 -12 -5 1 6 8 7 18 21 22 31 3 9 11
17 17 17 5 0 10 7 10 15 0 9 7 18 15 21 8 4 12 10 9 15 -3 5 0 9 6 9 6 0 9 4
6 8 -3 5 4 18 14 30 11 12 20 26 20 32 0 13 22 53 34 61 5 4 5 12 2 18 -4 6
-2 11 4 11 6 0 8 5 5 10 -3 5 -1 10 6 10 7 0 9 3 6 7 -4 3 -3 11 2 17 6 7 12
24 15 40 3 15 10 33 15 40 6 7 8 16 5 19 -3 3 -2 12 2 19 8 13 12 25 19 63 2
11 6 34 9 50 17 81 22 240 11 330 -4 28 -7 62 -8 78 -1 15 -5 27 -9 27 -3 0
-5 8 -3 18 1 9 -2 23 -8 30 -5 7 -7 15 -4 19 3 3 -1 19 -9 35 -8 16 -12 33 -9
38 3 6 1 10 -6 10 -7 0 -9 3 -6 7 4 3 0 17 -9 31 -9 13 -11 21 -4 17 6 -4 0
11 -15 34 -14 23 -23 46 -20 50 2 5 -2 12 -10 15 -8 3 -14 9 -13 13 3 13 -35
83 -44 83 -5 0 -7 4 -4 9 3 5 -1 12 -10 15 -8 3 -12 10 -9 16 3 5 1 10 -5 10
-6 0 -9 4 -5 9 3 6 -3 14 -12 20 -10 6 -14 11 -10 11 7 0 0 11 -33 48 -9 9
-22 26 -30 36 -13 18 -13 19 0 11 8 -4 5 2 -8 14 -12 12 -20 26 -17 32 4 5 -1
9 -9 9 -15 0 -20 11 -13 26 1 3 -6 10 -16 15 -9 6 -15 14 -12 20 4 5 2 9 -4 9
-6 0 -15 10 -22 21 -9 17 -8 20 3 14 7 -3 4 1 -6 9 -11 9 -16 16 -10 16 5 0 4
4 -2 8 -14 9 -49 74 -46 85 1 4 -3 7 -10 7 -6 0 -8 3 -5 6 4 4 -3 20 -14 35
-11 16 -17 33 -14 39 3 5 1 10 -4 10 -6 0 -11 9 -11 20 0 11 -5 20 -11 20 -5
0 -8 4 -4 9 3 5 1 12 -5 16 -6 4 -8 11 -5 16 4 5 2 9 -3 9 -5 0 -9 7 -10 15
-1 8 -3 22 -4 30 -1 8 -6 15 -11 15 -6 0 -7 3 -4 7 4 3 2 12 -4 20 -6 7 -8 13
-4 13 4 0 2 7 -5 15 -7 8 -9 15 -5 15 4 0 2 7 -5 15 -7 8 -9 15 -5 15 4 0 2 7
-5 15 -7 8 -10 15 -7 15 3 0 1 15 -4 33 -6 17 -12 41 -14 52 -1 11 -4 21 -5
23 -1 1 -3 10 -4 20 -1 9 -4 22 -8 28 -8 12 -4 50 6 46 3 -1 19 4 34 11 27 14
172 16 217 4 11 -3 25 -6 31 -6 5 -1 20 -10 32 -21 12 -12 22 -18 22 -15 0 3
11 -4 25 -17 51 -49 88 -71 99 -61 3 3 6 2 6 -3 0 -6 11 -10 25 -10 14 0 25 4
25 8 0 4 3 7 8 7 21 -4 36 5 72 41 22 22 38 40 36 40 -3 0 1 15 7 33 16 40 12
487 -4 487 -3 0 -6 7 -7 15 -1 8 -3 22 -4 30 -1 8 -6 15 -11 15 -5 0 -7 7 -3
15 3 8 1 15 -5 15 -6 0 -7 5 -4 10 3 6 1 10 -6 10 -7 0 -9 3 -6 7 4 3 -1 12
-11 20 -10 9 -11 12 -2 7 8 -4 3 5 -12 20 -15 16 -25 33 -21 40 3 6 3 8 -2 4
-4 -4 -31 16 -59 44 -28 29 -54 52 -58 50 -5 -1 -8 1 -8 6 0 4 -15 13 -32 21
-18 8 -36 18 -39 23 -3 5 -16 10 -27 11 -12 1 -22 5 -22 9 0 4 -7 5 -15 2 -8
-4 -15 -1 -15 6 0 7 -8 9 -20 5 -11 -3 -20 -3 -20 2 0 5 -37 7 -82 6 -107 -3
-111 -4 -125 -16 -7 -5 -13 -7 -13 -3 0 4 -13 0 -30 -9 -16 -9 -30 -12 -30 -9
0 4 -11 -3 -24 -15 -15 -14 -30 -20 -37 -16 -8 5 -10 4 -5 -3 5 -8 -1 -12 -14
-12 -12 0 -18 -4 -15 -10 3 -5 2 -10 -3 -10 -15 0 -116 -100 -118 -118 -2 -8
-7 -18 -12 -21 -15 -9 -52 -88 -45 -95 4 -3 1 -6 -6 -6 -7 0 -10 -4 -7 -8 3
-5 -1 -28 -8 -53 -23 -81 -9 -340 30 -549 2 -14 6 -36 8 -50 3 -14 5 -25 6
-25 1 0 4 -11 7 -25 7 -39 11 -55 13 -55 1 0 4 -8 14 -50 2 -11 9 -33 16 -50
6 -16 11 -31 11 -32 -1 -6 11 -39 20 -57 8 -14 8 -16 -3 -10 -7 4 -4 -3 7 -15
11 -13 19 -25 18 -27 -5 -6 0 -20 19 -64 9 -19 14 -38 12 -42 -3 -5 0 -8 6 -8
6 0 9 -4 6 -9 -3 -5 1 -14 9 -21 8 -7 12 -16 9 -21 -3 -5 0 -9 6 -9 6 0 8 -4
5 -10 -3 -5 -1 -10 5 -10 6 0 8 -4 5 -10 -3 -5 -1 -10 4 -10 6 0 10 -3 9 -7
-1 -5 6 -23 15 -40 10 -18 14 -33 10 -33 -5 0 -1 -5 7 -10 8 -5 16 -14 16 -20
1 -5 3 -11 4 -12 11 -12 6 -66 -8 -82 -9 -11 -11 -16 -3 -11 15 8 -17 -45 -34
-57 -6 -5 -6 -8 0 -8 6 0 3 -5 -5 -10 -8 -5 -15 -15 -15 -22 -1 -7 -6 -12 -13
-10 -7 1 -11 -1 -10 -5 2 -5 -17 -28 -41 -53 -24 -25 -41 -38 -37 -30 7 13 6
13 -6 0 -26 -29 -62 -56 -54 -40 5 9 2 8 -7 -2 -8 -10 -17 -15 -20 -11 -4 3
-7 0 -7 -7 0 -7 -3 -11 -6 -8 -3 4 -22 0 -42 -9 -20 -8 -45 -17 -56 -21 -12
-3 -402 -6 -868 -8 l-846 -2 -1 188 0 187 347 0 c371 1 418 4 438 31 7 9 14
13 14 9 0 -13 30 20 30 33 0 6 4 9 9 6 5 -3 12 6 16 22 3 15 14 36 23 46 9 11
11 16 5 12 -9 -5 -11 -2 -7 8 3 9 11 16 17 16 6 0 7 3 4 7 -4 3 -2 12 4 20 6
7 8 13 3 13 -5 0 -3 4 3 8 7 4 14 17 16 27 2 11 10 34 17 50 7 17 12 38 12 48
0 9 3 17 6 17 7 0 11 16 14 58 1 6 4 12 8 12 3 0 6 10 7 23 1 12 4 34 7 50 19
86 21 102 31 207 11 104 8 217 -9 370 -3 19 -5 35 -6 35 -2 0 -4 11 -14 65 -7
33 -11 53 -18 90 -2 8 -7 21 -11 28 -5 6 -5 17 -2 22 3 6 1 10 -5 10 -6 0 -9
4 -5 9 3 5 1 12 -5 16 -6 4 -8 10 -5 15 3 5 1 11 -4 15 -6 3 -8 12 -4 20 3 8
0 15 -6 15 -6 0 -11 8 -11 18 0 10 -6 24 -12 31 -11 11 -10 12 2 6 11 -6 10
-3 -3 12 -9 11 -14 23 -10 26 3 4 1 7 -6 7 -7 0 -9 5 -6 10 3 6 1 10 -5 10 -7
0 -9 7 -6 15 3 9 -1 18 -9 22 -9 3 -14 10 -13 17 3 12 -63 82 -74 78 -5 -1 -8
3 -8 9 0 5 -4 7 -10 4 -5 -3 -10 -2 -10 2 0 5 -168 8 -374 8 l-375 -1 -1 101
c-3 132 -3 135 -13 135 -4 0 -5 5 -2 10 3 6 1 10 -5 10 -6 0 -9 3 -7 8 2 4
-11 22 -30 40 -18 19 -33 30 -33 25 0 -4 -4 -3 -8 3 -9 15 -76 24 -93 13z
m797 -674 c7 -5 10 -13 8 -16 -1 -3 3 -17 11 -32 8 -15 12 -27 10 -27 -1 0 6
-28 17 -62 11 -35 22 -74 24 -88 2 -14 7 -41 10 -60 12 -65 14 -95 15 -220 1
-109 -5 -235 -11 -235 -2 0 -4 -13 -5 -30 -2 -16 -4 -31 -5 -32 -5 -6 -24 -98
-21 -98 1 0 -4 -13 -13 -29 -8 -16 -12 -34 -9 -39 3 -5 1 -12 -5 -16 -5 -3
-12 -15 -14 -26 -1 -11 -7 -25 -12 -30 -9 -10 -1515 -10 -1543 0 -10 3 -9 13
2 45 8 22 14 43 14 45 0 3 7 39 16 80 9 41 14 79 10 85 -3 5 -2 10 3 10 12 0
12 -2 16 215 2 105 0 215 -5 245 -5 30 -11 73 -14 95 -4 22 -15 76 -26 120
-12 44 -21 85 -22 90 -3 19 1528 29 1549 10z m1789 -41 c12 -13 25 -20 29 -16
4 4 7 3 5 -3 -1 -5 4 -23 11 -40 7 -16 13 -53 14 -81 2 -51 1 -52 -23 -48 -15
3 -35 8 -46 11 -11 3 -53 7 -93 8 -64 2 -97 -1 -177 -19 -18 -4 -20 1 -19 39
2 62 21 111 54 139 16 13 27 27 24 30 -2 3 -1 4 3 1 3 -3 17 2 30 10 13 9 27
14 31 11 4 -3 14 -1 21 4 21 12 110 -18 136 -46z m-95 -1685 c0 -6 11 -24 25
-41 14 -16 25 -36 25 -44 0 -8 5 -14 11 -14 5 0 8 -4 4 -9 -3 -5 1 -15 8 -23
8 -7 12 -19 9 -27 -3 -9 0 -11 8 -6 10 6 12 4 7 -7 -3 -9 0 -26 7 -40 13 -24
27 -68 31 -98 1 -8 6 -31 10 -50 15 -68 8 -310 -9 -339 -5 -7 -5 -15 -2 -18 3
-3 -1 -21 -9 -39 -8 -19 -11 -34 -8 -34 3 0 0 -6 -6 -14 -7 -8 -14 -24 -16
-36 -2 -13 -13 -40 -24 -60 -11 -21 -17 -41 -14 -44 4 -3 1 -6 -5 -6 -10 0
-43 -51 -42 -65 0 -3 -8 -14 -17 -24 -56 -60 -68 -74 -65 -78 2 -2 -14 -18
-35 -35 -43 -34 -54 -45 -34 -33 9 5 12 4 7 -3 -4 -7 -14 -12 -22 -12 -8 0
-17 -7 -20 -15 -4 -8 -10 -12 -15 -9 -5 3 -9 1 -9 -4 0 -5 -12 -15 -27 -23
-16 -8 -37 -22 -47 -31 -10 -10 -23 -15 -28 -12 -4 3 -8 0 -8 -6 0 -6 -4 -9
-9 -5 -5 3 -16 -1 -24 -9 -8 -8 -17 -12 -21 -9 -3 4 -6 1 -6 -6 0 -7 -4 -10
-8 -7 -5 3 -20 -1 -35 -9 -14 -7 -28 -11 -31 -7 -3 3 -6 0 -6 -7 0 -7 -4 -9
-10 -6 -5 3 -16 3 -22 -2 -7 -4 -17 -8 -23 -9 -12 -2 -49 -10 -85 -19 -60 -13
-140 -18 -371 -19 -255 -2 -262 0 -230 38 7 9 10 16 5 16 -5 0 -1 5 9 11 9 5
17 14 17 20 0 5 9 19 20 31 11 12 20 28 20 35 0 7 5 13 10 13 6 0 10 7 10 15
0 8 5 15 10 15 6 0 10 4 10 10 0 5 8 19 18 30 9 11 15 22 12 23 -3 1 7 16 23
32 15 16 27 33 27 38 0 4 9 17 20 29 11 12 20 28 20 35 0 7 5 13 10 13 6 0 10
7 10 15 0 8 5 15 12 15 6 0 9 3 5 6 -3 4 0 12 7 19 17 17 19 100 4 128 -7 12
-11 25 -10 30 1 4 -3 7 -8 7 -6 0 -10 7 -10 15 0 8 -11 17 -25 21 -14 3 -22
11 -18 17 4 6 0 8 -8 5 -8 -3 -23 0 -33 7 -10 7 -27 12 -39 10 -12 -2 -35 -6
-52 -9 -16 -3 -31 -10 -33 -16 -2 -5 -10 -10 -18 -10 -8 0 -23 -13 -32 -30 -9
-16 -21 -30 -25 -30 -5 0 -5 -5 -2 -10 3 -6 -1 -13 -9 -16 -9 -3 -13 -10 -10
-15 3 -5 -2 -12 -10 -15 -9 -3 -14 -10 -11 -14 3 -5 -3 -13 -12 -19 -10 -6
-14 -11 -9 -11 6 0 2 -6 -7 -12 -9 -7 -17 -19 -19 -27 -2 -7 -13 -25 -25 -39
-13 -14 -23 -29 -23 -33 0 -5 -9 -18 -20 -29 -12 -12 -18 -25 -15 -30 4 -6 2
-10 -3 -10 -4 0 -19 -14 -31 -31 -13 -18 -17 -28 -10 -23 8 4 -1 -9 -19 -30
-18 -21 -37 -49 -42 -62 -5 -13 -14 -24 -20 -24 -5 0 -10 -7 -10 -15 0 -8 -5
-15 -11 -15 -5 0 -8 -4 -4 -9 3 -6 -3 -14 -12 -20 -10 -6 -14 -11 -9 -11 6 0
1 -7 -10 -16 -10 -8 -12 -13 -4 -9 10 4 9 2 -2 -8 -10 -8 -18 -19 -18 -25 0
-5 -8 -13 -17 -18 -17 -7 -983 -13 -983 -6 0 8 36 68 52 86 10 10 15 22 13 26
-3 5 2 10 10 14 8 3 15 12 15 21 0 8 5 15 10 15 6 0 10 6 10 14 0 8 3 16 8 18
4 2 18 18 31 37 13 19 17 30 10 26 -8 -5 -2 4 14 20 15 15 30 39 33 51 3 13
10 21 15 19 5 -3 11 6 15 20 3 14 9 25 13 25 11 0 51 76 44 84 -3 3 -1 6 5 6
13 0 9 84 -6 121 -6 15 -18 29 -28 33 -9 4 -14 9 -10 13 5 5 -37 30 -66 38 -5
2 -9 3 -10 5 -2 1 -14 3 -28 4 -42 5 -91 -14 -124 -47 -17 -18 -123 -171 -235
-340 l-204 -307 -499 -2 c-275 -2 -501 -1 -503 1 -2 2 15 31 38 65 23 33 42
65 42 69 0 4 5 11 10 15 15 11 201 295 208 317 14 47 15 78 2 115 -15 43 -51
87 -75 92 -8 2 -17 6 -20 10 -3 4 -24 9 -46 11 -48 6 -134 -27 -134 -51 0 -8
-3 -12 -7 -9 -9 10 -43 -44 -36 -57 3 -6 2 -8 -2 -3 -11 9 -46 -43 -38 -57 3
-6 2 -8 -2 -3 -11 9 -46 -43 -38 -56 3 -6 1 -7 -5 -3 -6 3 -16 -7 -24 -24 -7
-16 -16 -30 -20 -30 -5 0 -8 -4 -8 -10 0 -5 -8 -19 -17 -30 -10 -11 -18 -24
-18 -28 0 -3 -10 -17 -22 -31 -13 -13 -23 -28 -23 -32 0 -5 -7 -17 -15 -26 -8
-10 -16 -22 -18 -28 -1 -5 -12 -20 -25 -34 -12 -13 -20 -26 -18 -28 2 -2 -7
-16 -20 -30 -13 -14 -22 -28 -20 -31 3 -2 -6 -16 -19 -30 -13 -14 -22 -29 -19
-34 7 -11 -34 -10 -81 3 -22 6 -41 11 -42 10 -8 -2 -165 75 -208 102 -74 47
-150 116 -182 164 -8 13 -20 20 -26 16 -5 -3 -7 -1 -4 4 4 6 -2 21 -12 34 -19
25 -65 109 -66 121 0 3 -3 10 -7 14 -5 4 -8 16 -8 26 0 10 -5 18 -12 18 -6 0
-9 2 -6 6 3 3 -1 26 -9 52 -8 26 -17 65 -20 87 -7 55 -7 224 0 260 14 68 38
148 52 175 9 17 14 31 13 32 -2 3 42 80 75 132 7 11 24 32 38 48 l26 28 37
-41 c20 -23 36 -39 36 -35 0 3 13 -8 28 -24 16 -16 32 -27 35 -23 4 3 7 1 7
-4 0 -6 23 -25 50 -42 28 -17 50 -28 50 -24 0 4 6 0 12 -9 13 -15 99 -55 135
-61 10 -2 26 -7 36 -10 35 -14 50 -17 100 -25 64 -9 3684 -8 3747 1 25 3 56 9
70 12 14 3 36 8 50 11 14 3 29 9 34 14 5 5 15 6 22 3 8 -3 14 1 14 8 0 7 3 9
6 6 4 -3 16 -1 28 5 11 7 28 13 36 14 8 2 16 8 18 14 2 5 7 8 12 5 4 -3 13 2
20 10 7 8 18 15 26 15 7 0 17 7 22 16 5 9 13 16 18 16 17 1 74 45 67 51 -3 4
-1 7 6 7 7 0 39 25 70 56 31 32 49 53 41 49 -8 -5 -4 3 10 17 28 29 40 34 40
17z"/>
<path d="M3404 2153 c-43 -73 -64 -116 -64 -131 0 -7 -4 -11 -9 -8 -8 5 -16
-13 -19 -38 0 -5 -5 -12 -10 -15 -6 -3 -12 -13 -14 -21 -2 -8 -11 -23 -20 -34
-10 -10 -15 -23 -12 -28 3 -4 1 -8 -4 -8 -6 0 -15 -12 -21 -27 -6 -16 -22 -48
-37 -73 -15 -25 -38 -65 -52 -90 -14 -25 -42 -75 -63 -112 -20 -36 -35 -69
-31 -72 3 -3 0 -6 -7 -6 -7 0 -10 -4 -7 -9 3 -5 -1 -12 -10 -15 -8 -3 -12 -10
-9 -16 3 -5 2 -10 -3 -10 -6 0 -13 -11 -16 -25 -4 -14 -11 -25 -16 -25 -6 0
-10 -6 -10 -13 0 -7 -13 -34 -30 -60 -16 -26 -27 -47 -24 -47 3 0 -2 -7 -10
-16 -9 -8 -14 -20 -11 -25 4 -5 1 -9 -5 -9 -6 0 -9 -4 -6 -8 3 -5 -4 -16 -15
-25 -11 -10 -17 -22 -14 -27 3 -6 2 -10 -3 -10 -6 0 -15 -12 -21 -27 -6 -16
-26 -55 -46 -88 -56 -98 -73 -129 -73 -139 0 -5 -5 -12 -10 -15 -6 -3 -12 -13
-14 -21 -2 -8 -11 -23 -20 -34 -33 -36 -34 -36 119 -22 61 6 96 9 253 22 41 3
93 7 115 9 50 5 192 16 225 18 18 2 25 -3 26 -18 1 -11 5 -72 8 -135 3 -63 9
-162 12 -220 3 -58 8 -150 10 -205 8 -145 7 -145 14 -145 3 0 25 40 50 88 25
48 48 89 51 92 9 7 47 83 47 94 0 5 4 12 9 15 16 11 62 98 56 105 -3 3 -2 6 4
6 5 0 20 21 33 47 13 27 26 50 30 53 8 7 39 73 38 84 0 5 4 12 9 15 16 12 55
74 42 67 -8 -4 -7 -2 2 6 9 7 16 15 15 18 0 3 21 42 47 87 26 45 47 87 47 93
0 5 5 10 12 10 6 0 9 3 5 6 -3 4 1 13 9 21 8 8 12 19 9 24 -4 5 -2 9 3 9 9 0
37 50 34 63 -1 4 2 7 7 7 5 0 11 8 15 18 3 9 15 33 26 52 32 54 58 104 58 114
0 5 4 12 9 15 5 3 27 38 48 76 21 39 45 81 53 94 l16 23 -90 -6 c-49 -4 -111
-9 -137 -11 -26 -3 -80 -7 -120 -11 -40 -3 -88 -7 -107 -9 -19 -2 -69 -6 -110
-9 -41 -3 -101 -8 -132 -11 -32 -2 -59 -1 -62 3 -3 5 -8 71 -11 148 -3 76 -8
171 -10 209 -7 122 -17 329 -17 348 1 25 -3 22 -34 -30z"/>
</g>
</svg>
