<svg id="svg" version="1.1" xmlns="http://www.w3.org/2000/svg" xmlns:xlink="http://www.w3.org/1999/xlink" width="400" height="449.7114957833999" viewBox="0, 0, 400,449.7114957833999"><g id="svgg"><path id="path0" d="M200.838 304.271 C 200.732 304.396,200.099 305.370,199.432 306.434 C 198.765 307.499,197.600 309.307,196.842 310.452 C 196.085 311.598,195.241 312.935,194.968 313.424 C 194.694 313.913,193.817 315.282,193.018 316.467 C 192.219 317.652,191.565 318.676,191.565 318.743 C 191.565 318.858,191.283 319.293,189.042 322.638 C 188.574 323.337,188.191 324.027,188.191 324.173 C 188.191 324.320,188.099 324.496,187.987 324.565 C 187.704 324.740,185.411 328.219,184.712 329.534 C 184.396 330.128,183.890 330.937,183.587 331.333 C 182.932 332.189,181.642 334.162,181.469 334.573 C 181.291 334.994,179.166 338.188,178.847 338.513 C 178.698 338.665,178.442 339.087,178.276 339.451 C 177.948 340.176,177.129 341.556,176.939 341.706 C 176.874 341.757,176.372 342.516,175.824 343.393 C 173.632 346.898,172.909 348.009,172.471 348.547 C 172.219 348.857,171.879 349.405,171.714 349.766 C 171.429 350.393,169.990 352.650,166.401 358.104 C 165.499 359.475,164.761 360.661,164.761 360.739 C 164.761 360.898,161.936 365.175,161.730 365.327 C 161.657 365.381,161.508 365.661,161.398 365.950 C 161.288 366.239,160.482 367.516,159.606 368.787 C 158.730 370.058,158.013 371.176,158.013 371.272 C 158.013 371.445,155.850 374.754,155.172 375.618 C 154.976 375.868,154.662 376.416,154.475 376.836 C 154.287 377.257,153.831 377.996,153.460 378.478 C 153.090 378.961,152.464 379.889,152.070 380.540 C 151.676 381.192,151.252 381.893,151.127 382.099 C 150.196 383.641,149.082 385.350,148.796 385.673 C 147.931 386.651,148.275 386.913,150.281 386.803 C 151.286 386.748,154.639 386.656,157.732 386.598 C 160.825 386.539,164.072 386.455,164.948 386.410 C 165.825 386.365,169.241 386.277,172.540 386.214 C 175.839 386.150,179.086 386.071,179.756 386.037 C 180.426 386.002,183.716 385.922,187.067 385.858 C 190.417 385.794,193.728 385.699,194.424 385.647 L 195.689 385.554 195.689 412.458 C 195.689 427.256,195.754 439.363,195.833 439.363 C 195.912 439.363,196.354 438.762,196.814 438.029 C 197.274 437.295,197.800 436.523,197.982 436.313 C 198.164 436.103,198.313 435.854,198.313 435.759 C 198.313 435.605,199.169 434.268,200.555 432.254 C 200.809 431.886,201.231 431.190,201.492 430.710 C 201.754 430.229,202.639 428.838,203.459 427.619 C 204.280 426.400,205.150 425.022,205.394 424.557 C 205.639 424.092,206.068 423.416,206.348 423.055 C 206.855 422.404,208.435 419.944,208.435 419.806 C 208.435 419.671,210.750 416.214,211.026 415.939 C 211.177 415.787,211.437 415.362,211.602 414.993 C 211.854 414.432,213.447 411.918,214.835 409.895 C 215.026 409.616,215.183 409.341,215.183 409.284 C 215.183 409.157,217.246 405.941,217.411 405.811 C 217.578 405.678,218.468 404.273,218.597 403.936 C 218.657 403.782,219.410 402.582,220.271 401.271 C 221.132 399.960,222.241 398.231,222.735 397.429 C 223.229 396.626,223.879 395.633,224.181 395.220 C 224.483 394.808,224.860 394.202,225.020 393.873 C 225.180 393.545,226.026 392.211,226.901 390.910 C 227.776 389.608,228.491 388.491,228.491 388.427 C 228.491 388.270,229.951 386.007,230.579 385.192 C 230.857 384.831,231.354 384.030,231.684 383.411 C 232.013 382.793,232.340 382.245,232.409 382.193 C 232.479 382.142,232.991 381.382,233.548 380.506 C 234.104 379.630,234.665 378.807,234.793 378.677 C 234.922 378.548,235.086 378.255,235.159 378.026 C 235.282 377.637,236.510 375.652,236.755 375.445 C 236.900 375.323,238.545 372.783,238.636 372.540 C 238.675 372.437,239.445 371.237,240.347 369.873 C 241.249 368.510,241.987 367.331,241.987 367.253 C 241.987 367.175,242.694 366.055,243.558 364.765 C 244.422 363.474,245.657 361.575,246.302 360.544 C 246.947 359.513,247.527 358.627,247.591 358.575 C 247.955 358.282,248.728 356.835,248.840 356.235 L 248.972 355.535 244.589 355.652 C 242.178 355.716,238.730 355.810,236.926 355.861 C 235.122 355.913,230.230 356.036,226.054 356.136 C 221.879 356.236,217.156 356.361,215.558 356.413 C 213.960 356.465,210.101 356.563,206.982 356.630 L 201.312 356.753 201.312 330.391 C 201.312 315.893,201.249 304.033,201.172 304.037 C 201.094 304.041,200.944 304.146,200.838 304.271 " stroke="none" fill="#fca40c" fill-rule="evenodd"></path><path id="path1" d="M200.750 30.834 L 200.750 53.233 225.167 53.233 L 249.584 53.233 249.914 53.995 C 250.524 55.404,252.109 59.792,252.109 60.074 C 252.109 60.227,252.370 61.260,252.690 62.369 C 254.357 68.153,255.318 73.391,255.655 78.538 C 256.139 85.911,256.124 87.500,255.492 96.064 C 255.219 99.760,254.216 104.844,252.775 109.841 C 252.434 111.026,252.105 112.265,252.044 112.594 C 251.925 113.249,250.475 117.206,249.860 118.555 L 249.475 119.400 225.112 119.400 L 200.750 119.400 200.750 152.765 L 200.750 186.129 258.341 186.121 C 290.016 186.117,317.029 186.040,318.369 185.951 C 326.128 185.435,337.056 181.409,343.560 176.670 C 344.116 176.265,344.807 175.803,345.094 175.642 C 345.635 175.342,347.898 173.467,350.301 171.329 C 352.146 169.688,355.613 165.850,356.796 164.140 L 357.421 163.238 358.218 164.421 C 358.657 165.072,359.072 165.647,359.141 165.698 C 359.210 165.750,359.515 166.298,359.818 166.917 C 360.122 167.535,360.978 169.166,361.722 170.541 C 362.466 171.915,363.074 173.148,363.074 173.280 C 363.074 173.411,363.335 174.142,363.655 174.904 C 364.945 177.979,366.170 181.991,366.454 184.067 C 366.545 184.738,366.798 186.340,367.016 187.629 C 368.514 196.502,366.878 209.707,363.353 217.179 C 363.199 217.504,363.074 217.891,363.074 218.040 C 363.074 218.330,360.873 222.689,360.142 223.848 C 359.899 224.233,359.700 224.661,359.700 224.799 C 359.700 226.587,350.769 236.691,346.213 240.057 C 345.435 240.632,344.313 241.470,343.720 241.920 C 343.126 242.370,342.199 242.970,341.659 243.253 C 341.120 243.536,340.635 243.810,340.583 243.861 C 340.303 244.136,335.138 246.860,334.895 246.861 C 334.775 246.861,334.128 247.121,333.458 247.439 C 331.059 248.579,326.310 250.221,324.649 250.485 C 324.288 250.542,323.045 250.807,321.887 251.073 C 316.325 252.352,316.251 252.356,298.265 252.434 L 281.911 252.504 282.136 251.978 C 282.377 251.419,283.027 250.390,283.240 250.234 C 283.310 250.183,284.256 248.779,285.343 247.115 C 286.430 245.451,287.628 243.685,288.005 243.191 C 288.382 242.698,288.856 241.941,289.058 241.511 C 289.260 241.080,289.593 240.548,289.798 240.329 C 290.003 240.109,291.047 238.588,292.119 236.948 C 293.190 235.309,294.376 233.563,294.753 233.069 C 295.129 232.576,295.603 231.819,295.806 231.389 C 296.008 230.958,296.341 230.427,296.546 230.207 C 297.177 229.530,299.892 225.277,300.453 224.088 C 301.945 220.925,301.573 215.342,299.739 213.373 C 299.544 213.163,299.251 212.734,299.088 212.419 C 298.397 211.084,295.893 209.401,293.440 208.623 C 290.188 207.592,285.226 208.537,282.924 210.626 C 281.764 211.677,279.008 215.283,278.939 215.839 C 278.926 215.942,278.772 216.194,278.596 216.400 C 278.420 216.605,277.310 218.250,276.130 220.055 C 274.950 221.860,273.926 223.379,273.856 223.430 C 273.614 223.606,272.352 225.580,272.352 225.782 C 272.352 225.893,272.200 226.147,272.014 226.347 C 271.828 226.547,271.139 227.512,270.483 228.491 C 269.827 229.470,269.220 230.300,269.134 230.334 C 269.049 230.369,268.978 230.496,268.978 230.617 C 268.978 230.830,267.363 233.360,267.105 233.552 C 266.862 233.733,265.604 235.705,265.604 235.904 C 265.604 236.015,265.453 236.269,265.269 236.469 C 264.919 236.848,262.891 239.836,261.476 242.058 C 261.024 242.768,260.562 243.443,260.450 243.558 C 260.076 243.940,259.048 245.512,258.876 245.966 C 258.782 246.212,258.502 246.661,258.252 246.965 C 257.818 247.492,256.114 250.001,255.045 251.687 L 254.540 252.484 227.645 252.484 L 200.750 252.484 200.750 263.730 L 200.750 274.977 220.054 274.977 L 239.358 274.977 238.775 276.054 C 238.455 276.647,238.005 277.354,237.777 277.625 C 237.074 278.462,235.239 281.467,235.239 281.782 C 235.239 281.947,235.112 282.567,234.958 283.161 C 233.087 290.342,238.399 297.257,245.802 297.278 C 248.333 297.285,251.118 296.373,252.461 295.099 C 252.731 294.843,253.170 294.517,253.437 294.376 C 253.969 294.093,254.757 293.156,255.483 291.942 C 256.028 291.032,260.450 284.435,261.285 283.288 C 261.597 282.859,262.043 282.177,262.276 281.772 C 262.509 281.367,263.608 279.673,264.718 278.006 L 266.738 274.977 290.023 274.971 C 313.928 274.965,313.633 274.972,320.806 274.221 C 324.447 273.840,329.172 272.825,333.033 271.595 C 333.984 271.292,335.410 270.871,336.200 270.659 C 337.712 270.254,340.875 269.011,343.144 267.931 C 343.883 267.579,344.581 267.291,344.694 267.291 C 344.989 267.291,347.584 265.967,349.457 264.860 C 350.335 264.342,351.145 263.918,351.258 263.918 C 351.370 263.918,352.569 263.179,353.921 262.277 C 355.274 261.375,356.516 260.553,356.681 260.450 C 357.640 259.852,359.309 258.639,359.792 258.189 C 360.100 257.902,360.713 257.438,361.154 257.158 C 363.473 255.688,371.583 247.537,373.452 244.799 C 373.839 244.231,374.568 243.270,375.073 242.663 C 375.577 242.055,376.134 241.256,376.309 240.887 C 376.484 240.518,376.742 240.101,376.882 239.961 C 377.872 238.971,382.129 231.112,383.602 227.554 C 385.645 222.623,385.868 222.000,386.993 218.088 C 388.209 213.860,388.980 210.372,389.624 206.186 C 390.051 203.406,390.119 188.482,389.718 185.567 C 389.306 182.576,388.239 177.555,387.428 174.789 C 387.004 173.346,386.586 171.821,386.499 171.401 C 386.329 170.581,385.057 167.140,384.357 165.604 C 384.122 165.089,383.744 164.203,383.517 163.636 C 382.309 160.615,378.163 153.019,377.192 152.048 C 377.053 151.909,376.689 151.292,376.384 150.677 C 376.079 150.063,375.545 149.205,375.197 148.772 C 374.850 148.339,373.706 146.696,372.656 145.120 C 371.606 143.545,370.590 142.099,370.398 141.907 C 370.206 141.715,369.823 141.106,369.546 140.554 C 369.269 140.002,368.720 139.128,368.325 138.613 C 367.930 138.097,366.913 136.495,366.065 135.052 C 365.217 133.608,364.408 132.294,364.268 132.132 C 364.127 131.970,363.644 131.126,363.194 130.258 C 362.744 129.389,361.774 127.563,361.038 126.200 C 360.302 124.836,359.700 123.657,359.700 123.578 C 359.700 123.499,358.994 122.000,358.131 120.246 C 357.267 118.492,356.500 116.846,356.424 116.589 C 356.349 116.331,355.863 115.066,355.344 113.777 C 353.950 110.316,353.121 108.120,353.010 107.591 C 352.956 107.334,352.428 105.604,351.838 103.749 C 350.414 99.278,348.231 90.482,348.488 90.257 C 350.133 88.819,356.188 87.914,359.813 88.563 C 363.647 89.250,368.138 91.418,370.103 93.532 C 376.019 99.897,385.534 98.526,389.358 90.758 L 389.972 89.511 389.972 74.043 L 389.972 58.575 389.471 56.607 C 388.892 54.337,387.915 51.593,387.083 49.903 C 386.765 49.257,386.504 48.647,386.504 48.546 C 386.504 48.283,383.818 44.191,383.445 43.885 C 383.272 43.744,383.130 43.511,383.130 43.368 C 383.130 42.972,377.853 37.794,377.070 37.422 C 376.692 37.243,376.382 37.035,376.382 36.961 C 376.382 36.887,375.644 36.365,374.742 35.801 C 373.840 35.236,372.816 34.584,372.467 34.351 C 372.117 34.118,371.713 33.927,371.569 33.927 C 371.424 33.927,370.756 33.670,370.084 33.355 C 361.988 29.571,350.668 29.649,343.036 33.543 C 342.614 33.758,342.268 33.889,342.268 33.833 C 342.268 33.621,340.587 34.589,338.269 36.133 C 334.488 38.653,330.764 42.415,328.670 45.829 C 328.164 46.654,327.664 47.421,327.558 47.533 C 326.657 48.491,324.342 54.952,323.719 58.249 C 322.588 64.237,323.472 78.774,325.762 91.846 C 325.952 92.929,326.203 94.447,326.321 95.220 C 326.555 96.750,328.025 102.745,328.946 105.925 C 329.263 107.019,329.522 108.045,329.522 108.205 C 329.522 108.504,330.750 112.270,332.615 117.692 C 333.196 119.381,334.178 121.911,334.798 123.315 C 335.419 124.718,335.992 126.129,336.072 126.449 C 336.152 126.769,336.599 127.823,337.065 128.792 C 337.531 129.760,338.353 131.481,338.893 132.615 C 340.206 135.375,341.141 137.197,342.124 138.916 C 343.325 141.015,343.521 141.712,343.138 142.520 C 342.969 142.876,342.830 143.317,342.830 143.499 C 342.830 144.179,339.704 149.407,338.243 151.172 C 336.935 152.751,334.173 155.576,333.938 155.576 C 333.816 155.576,333.468 155.838,333.165 156.158 C 331.372 158.052,323.491 162.318,321.770 162.326 C 321.549 162.327,320.947 162.458,320.431 162.616 C 316.915 163.694,320.103 163.636,263.993 163.636 L 212.746 163.636 212.746 152.858 L 212.746 142.081 234.817 142.075 C 260.446 142.068,259.933 142.100,262.666 140.341 C 265.599 138.454,267.023 136.391,269.358 130.647 C 269.589 130.080,269.969 129.194,270.204 128.679 C 270.988 126.954,272.352 123.450,272.354 123.157 C 272.355 122.998,272.691 121.918,273.101 120.757 C 274.021 118.152,275.539 112.946,275.539 112.396 C 275.539 112.173,275.785 110.895,276.086 109.557 C 279.485 94.435,279.488 78.018,276.096 62.980 C 275.875 62.001,275.623 60.711,275.536 60.114 C 275.352 58.851,274.993 57.597,273.467 52.890 C 272.854 51.000,272.352 49.355,272.352 49.234 C 272.352 49.007,270.728 44.891,270.122 43.580 C 269.931 43.168,269.588 42.366,269.359 41.799 C 266.945 35.815,264.958 33.142,261.762 31.584 C 259.567 30.513,260.573 30.553,235.685 30.553 L 212.780 30.553 212.701 24.133 L 212.623 17.713 212.038 15.856 C 211.716 14.834,211.383 13.949,211.297 13.888 C 211.211 13.827,210.823 13.339,210.435 12.803 C 208.584 10.246,205.030 8.435,201.865 8.435 L 200.750 8.435 200.750 30.834 M360.367 53.845 C 361.095 54.102,361.945 54.443,362.256 54.604 C 363.093 55.037,366.000 58.030,366.258 58.724 C 366.381 59.055,366.642 59.705,366.838 60.169 C 367.404 61.507,367.563 62.543,367.568 64.923 L 367.573 67.147 367.057 67.051 C 366.774 66.998,365.698 66.783,364.667 66.572 C 359.423 65.500,353.507 65.553,347.900 66.721 C 345.747 67.170,345.919 67.355,345.945 64.604 C 345.978 61.040,346.600 59.200,348.466 57.147 C 348.969 56.592,349.384 56.082,349.386 56.013 C 349.398 55.682,352.075 54.183,353.327 53.805 C 354.100 53.573,354.817 53.350,354.920 53.311 C 355.568 53.065,359.147 53.416,360.367 53.845 " stroke="none" fill="#2484d4" fill-rule="evenodd"></path><path id="path2" d="M199.157 8.564 C 195.663 9.364,192.669 11.703,191.313 14.694 C 190.314 16.895,190.253 17.446,190.253 24.254 L 190.253 30.553 161.678 30.553 L 133.103 30.553 131.640 31.015 C 125.730 32.882,122.447 38.904,124.071 44.900 C 124.512 46.529,124.600 46.740,126.090 49.752 C 126.648 50.879,127.265 52.280,127.463 52.867 C 127.661 53.454,128.193 54.894,128.646 56.067 C 129.636 58.629,131.022 62.907,131.022 63.399 C 131.022 63.593,131.268 64.738,131.569 65.943 C 132.495 69.655,133.138 73.239,133.677 77.694 C 134.016 80.500,134.016 91.951,133.677 94.752 C 132.712 102.730,131.088 109.777,128.733 116.214 C 127.233 120.315,127.066 120.720,125.688 123.592 C 122.046 131.189,123.616 137.709,129.826 140.766 C 132.467 142.066,129.992 141.967,161.621 142.033 L 190.253 142.092 190.253 152.867 L 190.253 163.642 137.441 163.586 L 84.630 163.530 82.474 163.005 C 81.289 162.717,79.981 162.409,79.569 162.323 C 77.345 161.854,72.009 159.161,69.404 157.193 C 67.006 155.381,62.793 151.190,62.793 150.616 C 62.793 150.557,63.722 149.286,64.859 147.792 C 65.995 146.299,67.087 144.788,67.285 144.435 C 67.825 143.473,68.643 142.187,68.782 142.081 C 69.200 141.760,72.484 135.262,73.426 132.890 C 78.896 119.113,79.539 103.930,75.053 94.494 C 74.495 93.322,74.039 92.285,74.039 92.190 C 74.039 92.095,73.951 91.916,73.843 91.792 C 73.736 91.667,73.180 90.848,72.607 89.972 C 72.035 89.096,71.364 88.185,71.116 87.949 C 70.868 87.713,70.665 87.431,70.665 87.323 C 70.665 87.080,66.789 83.212,65.511 82.179 C 63.394 80.470,59.854 78.390,57.732 77.607 C 52.023 75.503,50.544 75.182,45.897 75.035 C 40.756 74.873,36.941 75.485,32.874 77.125 C 31.970 77.490,31.132 77.788,31.013 77.788 C 30.773 77.788,27.328 79.625,27.179 79.832 C 27.058 80.001,25.545 80.993,24.911 81.319 C 24.643 81.457,24.090 81.879,23.682 82.256 C 21.113 84.632,20.214 85.522,19.213 86.679 C 18.594 87.394,17.898 88.186,17.666 88.440 C 17.434 88.694,17.245 88.976,17.245 89.066 C 17.245 89.156,16.760 89.972,16.167 90.879 C 11.232 98.432,9.684 110.228,13.049 114.636 C 13.398 115.093,13.683 115.540,13.683 115.629 C 13.683 115.718,14.042 116.121,14.480 116.524 C 17.771 119.553,22.556 120.503,26.538 118.917 C 27.164 118.667,27.755 118.460,27.850 118.457 C 28.286 118.442,30.054 116.925,31.121 115.651 C 33.014 113.390,33.414 112.259,33.715 108.322 C 34.190 102.085,38.078 98.095,44.049 97.716 C 49.496 97.370,54.167 100.939,55.323 106.328 C 55.826 108.674,55.200 115.539,54.162 119.046 C 53.961 119.727,53.796 120.463,53.796 120.682 C 53.796 122.181,49.986 129.780,47.855 132.533 C 47.411 133.106,47.048 133.654,47.048 133.751 C 47.048 133.848,46.698 134.307,46.270 134.770 C 45.842 135.234,45.026 136.162,44.457 136.832 C 43.304 138.189,40.648 140.978,39.926 141.590 C 36.853 144.196,27.884 153.578,27.318 154.780 C 27.208 155.012,27.048 155.201,26.961 155.201 C 26.875 155.201,26.804 155.328,26.804 155.483 C 26.804 155.637,26.735 155.764,26.651 155.764 C 26.490 155.764,24.280 158.654,23.805 159.488 C 23.650 159.759,23.008 160.783,22.376 161.762 C 20.879 164.086,20.174 165.323,20.349 165.323 C 20.426 165.323,20.359 165.471,20.199 165.651 C 19.734 166.177,17.486 170.741,16.892 172.364 C 16.593 173.183,15.966 174.864,15.500 176.101 C 13.774 180.682,12.528 186.019,11.585 192.877 C 10.975 197.312,11.310 208.502,12.195 213.308 C 13.132 218.394,13.993 221.822,15.118 224.952 C 15.576 226.229,16.206 227.990,16.517 228.866 C 17.152 230.657,19.737 236.094,20.192 236.598 C 20.356 236.778,20.426 236.926,20.349 236.926 C 20.165 236.926,20.968 238.312,22.304 240.300 C 22.893 241.176,23.525 242.188,23.710 242.549 C 23.894 242.910,24.099 243.247,24.166 243.299 C 24.232 243.351,24.951 244.278,25.763 245.361 C 29.880 250.848,36.332 257.067,41.678 260.702 C 42.488 261.253,43.562 262.015,44.064 262.395 C 44.567 262.775,45.465 263.347,46.060 263.666 C 46.655 263.985,48.213 264.853,49.523 265.594 C 50.833 266.336,52.309 267.097,52.803 267.286 C 53.297 267.475,54.950 268.187,56.475 268.868 C 58.001 269.549,60.067 270.351,61.068 270.651 C 62.149 270.976,62.865 271.286,62.834 271.416 C 62.782 271.634,60.955 274.422,60.746 274.602 C 60.686 274.653,60.487 274.991,60.303 275.351 C 60.118 275.712,59.466 276.682,58.852 277.507 C 55.282 282.306,54.645 286.842,56.914 291.315 C 57.724 292.913,58.568 294.031,59.231 294.384 C 59.489 294.521,59.921 294.843,60.191 295.099 C 62.729 297.507,67.839 297.986,71.697 296.178 C 74.121 295.042,75.172 294.004,77.501 290.440 C 78.445 288.997,79.528 287.409,79.908 286.912 C 80.289 286.414,80.600 285.908,80.601 285.787 C 80.601 285.666,80.954 285.103,81.384 284.536 C 81.815 283.969,83.026 282.191,84.076 280.585 C 85.126 278.979,86.144 277.482,86.338 277.258 C 86.533 277.035,86.911 276.451,87.179 275.961 L 87.666 275.070 119.184 275.023 C 136.519 274.997,150.701 275.039,150.699 275.117 C 150.697 275.194,150.064 276.139,149.293 277.215 C 148.522 278.292,147.891 279.250,147.891 279.344 C 147.891 279.438,147.637 279.891,147.327 280.351 C 145.637 282.855,145.331 287.478,146.662 290.385 C 147.425 292.051,148.906 294.283,149.248 294.283 C 149.324 294.283,149.890 294.666,150.504 295.133 C 155.407 298.861,162.691 297.668,166.260 292.552 C 166.782 291.803,167.333 291.042,167.485 290.860 C 167.636 290.678,167.760 290.454,167.760 290.360 C 167.760 290.267,167.823 290.162,167.901 290.128 C 167.978 290.094,168.192 289.770,168.376 289.410 C 168.560 289.049,169.212 288.079,169.824 287.254 C 170.436 286.429,171.129 285.408,171.363 284.986 C 171.958 283.914,174.536 280.145,174.727 280.069 C 174.813 280.034,174.883 279.907,174.883 279.785 C 174.883 279.573,176.124 277.608,176.381 277.413 C 176.449 277.362,176.860 276.792,177.294 276.148 L 178.083 274.977 189.417 274.977 L 200.750 274.977 200.750 263.734 L 200.750 252.491 196.905 252.441 L 193.061 252.390 193.751 251.359 C 194.130 250.792,194.511 250.300,194.596 250.266 C 194.682 250.231,194.752 250.105,194.752 249.984 C 194.753 249.769,195.900 248.008,197.189 246.244 C 197.549 245.750,198.055 244.979,198.313 244.531 C 198.978 243.373,201.158 240.218,201.344 240.144 C 201.429 240.109,201.500 239.983,201.500 239.863 C 201.500 239.647,202.648 237.886,203.936 236.122 C 204.297 235.628,204.803 234.857,205.061 234.409 C 205.726 233.251,207.906 230.096,208.092 230.022 C 208.177 229.988,208.247 229.860,208.247 229.739 C 208.247 229.617,208.713 228.844,209.282 228.020 C 211.336 225.048,211.809 224.305,211.809 224.051 C 211.809 223.909,211.988 223.269,212.206 222.628 C 213.175 219.785,212.433 215.120,210.641 212.788 C 207.096 208.174,201.469 206.908,195.973 209.490 C 194.435 210.212,193.060 211.562,191.628 213.758 C 190.949 214.800,190.073 216.073,189.681 216.589 C 189.290 217.104,188.689 217.997,188.346 218.572 C 187.691 219.673,183.360 226.155,182.389 227.490 C 182.076 227.919,181.631 228.601,181.398 229.006 C 180.816 230.017,176.628 236.305,175.998 237.113 C 175.717 237.474,175.258 238.191,174.979 238.707 C 174.700 239.222,174.320 239.813,174.135 240.019 C 173.949 240.225,172.919 241.743,171.845 243.393 C 170.771 245.042,169.574 246.808,169.186 247.316 C 168.797 247.825,168.318 248.584,168.120 249.003 C 167.923 249.423,167.548 250.013,167.287 250.316 C 167.027 250.618,166.584 251.230,166.303 251.674 L 165.792 252.483 134.338 252.483 C 109.226 252.484,102.911 252.436,103.020 252.249 C 103.547 251.343,106.413 247.039,106.778 246.603 C 107.027 246.307,107.341 245.801,107.477 245.479 C 107.613 245.156,108.047 244.470,108.442 243.955 C 108.837 243.440,110.015 241.710,111.059 240.112 C 112.103 238.515,113.268 236.800,113.648 236.302 C 114.028 235.805,114.339 235.314,114.339 235.212 C 114.339 235.022,115.427 233.348,115.661 233.177 C 115.732 233.126,116.792 231.571,118.017 229.722 C 119.242 227.873,120.429 226.102,120.655 225.786 C 120.881 225.470,121.070 225.103,121.076 224.970 C 121.082 224.838,121.290 224.329,121.538 223.839 C 123.921 219.137,121.525 211.982,116.751 209.547 C 110.790 206.506,104.461 208.477,100.882 214.488 C 100.404 215.292,99.879 216.093,99.715 216.269 C 99.397 216.611,97.579 219.275,97.450 219.588 C 97.333 219.871,92.927 226.509,92.784 226.617 C 92.622 226.739,90.722 229.571,90.722 229.690 C 90.722 229.740,89.963 230.878,89.035 232.220 C 88.107 233.561,87.348 234.710,87.348 234.774 C 87.348 234.911,86.240 236.550,85.942 236.854 C 85.829 236.970,85.364 237.644,84.907 238.354 C 83.439 240.637,79.129 247.101,78.173 248.454 C 77.663 249.175,77.239 249.850,77.231 249.953 C 77.223 250.056,76.986 250.417,76.705 250.754 L 76.195 251.368 73.758 250.785 C 69.753 249.826,68.028 249.238,63.832 247.401 C 63.106 247.083,62.216 246.699,61.856 246.547 C 61.495 246.395,60.904 246.080,60.544 245.848 C 60.183 245.616,58.788 244.774,57.444 243.977 C 56.100 243.180,54.512 242.111,53.914 241.601 C 53.317 241.092,52.363 240.366,51.795 239.989 C 51.228 239.612,50.665 239.146,50.546 238.953 C 50.426 238.760,49.627 237.999,48.769 237.262 C 47.912 236.526,47.093 235.706,46.949 235.440 C 46.805 235.175,46.053 234.288,45.279 233.470 C 44.504 232.652,43.735 231.695,43.568 231.345 C 43.402 230.994,43.103 230.544,42.904 230.345 C 41.893 229.334,38.285 222.651,37.349 220.056 C 32.801 207.440,32.467 195.666,36.358 185.046 C 36.670 184.193,36.926 183.355,36.926 183.185 C 36.926 182.120,41.025 174.330,42.830 171.966 C 43.213 171.463,43.593 170.881,43.674 170.672 C 44.032 169.746,47.048 166.642,47.048 167.199 C 47.048 167.423,52.022 172.446,52.244 172.446 C 52.328 172.446,52.775 172.805,53.237 173.245 C 54.302 174.257,55.599 175.306,56.337 175.754 C 56.653 175.945,57.749 176.663,58.774 177.349 C 64.317 181.060,71.675 183.950,80.037 185.699 C 81.542 186.014,84.950 186.035,141.190 186.086 L 200.750 186.139 200.750 152.770 L 200.750 119.400 176.114 119.400 L 151.479 119.400 151.642 118.885 C 153.372 113.412,154.221 109.913,154.838 105.717 C 154.952 104.944,155.163 103.552,155.307 102.624 C 156.892 92.441,156.926 80.438,155.397 70.478 C 155.200 69.189,154.941 67.460,154.822 66.635 C 154.359 63.423,152.995 57.649,152.000 54.692 C 151.802 54.102,151.640 53.533,151.640 53.427 C 151.640 53.295,159.449 53.233,176.195 53.233 L 200.750 53.233 200.750 30.834 L 200.750 8.435 200.141 8.457 C 199.806 8.469,199.363 8.517,199.157 8.564 " stroke="none" fill="#44a4f4" fill-rule="evenodd"></path><path id="path3" d="" stroke="none" fill="#a494b0" fill-rule="evenodd"></path><path id="path4" d="" stroke="none" fill="#3094e8" fill-rule="evenodd"></path></g></svg>