<?xml version="1.0"?>
<svg xmlns="http://www.w3.org/2000/svg" xmlns:xlink="http://www.w3.org/1999/xlink" xmlns:svgjs="http://svgjs.com/svgjs" version="1.1" width="512" height="512" x="0" y="0" viewBox="0 0 512.001 512.001" style="enable-background:new 0 0 512 512" xml:space="preserve" class=""><g>
<g xmlns="http://www.w3.org/2000/svg">
	<g>
		<path d="M345.746,219.798c-3.185-3.184-8.347-3.184-11.53,0l-49.194,49.194c-3.184,3.184-3.184,8.346,0,11.529    c8.371,8.371,19.366,12.557,30.362,12.557s21.991-4.185,30.362-12.557C362.488,263.78,362.488,236.54,345.746,219.798z     M334.216,268.992c-8.375,8.375-20.983,9.995-30.997,4.862l35.86-35.86C344.21,248.008,342.589,260.618,334.216,268.992z" fill="#44a4f4" data-original="#000000" style=""/>
	</g>
</g>
<g xmlns="http://www.w3.org/2000/svg">
	<g>
		<path d="M226.981,268.992l-49.194-49.194c-3.184-3.184-8.346-3.184-11.53,0c-16.742,16.742-16.742,43.982,0,60.724    c8.371,8.371,19.366,12.557,30.362,12.557s21.991-4.185,30.362-12.557C230.165,277.338,230.165,272.175,226.981,268.992z     M177.785,268.992c-8.375-8.375-9.995-20.983-4.862-30.997l35.86,35.86C198.77,278.988,186.16,277.366,177.785,268.992z" fill="#44a4f4" data-original="#000000" style=""/>
	</g>
</g>
<g xmlns="http://www.w3.org/2000/svg">
	<g>
		<path d="M490.05,410.001c0.133-0.584,0.21-1.189,0.21-1.814v-60.875c0-4.503-3.65-8.153-8.153-8.153h-61.98    c10.39-21.55,16.647-45.447,17.763-70.658h44.217c4.503,0,8.153-3.65,8.153-8.153v-62.76    c10.099-3.411,17.393-12.968,17.393-24.204c0-14.086-11.46-25.546-25.546-25.546s-25.546,11.46-25.546,25.546    c0,11.236,7.294,20.793,17.393,24.204v54.607h-36.06c-0.674-15.261-3.233-30.309-7.647-44.842    c-1.31-4.309-5.865-6.739-10.17-5.432c-4.308,1.309-6.74,5.862-5.432,10.17c4.732,15.577,7.131,31.813,7.131,48.256    c0,91.409-74.366,165.775-165.775,165.775S90.226,351.757,90.226,260.348S164.592,94.573,256.001,94.573    c36.293,0,70.798,11.749,98.984,32.755c0.347,0.304,0.72,0.578,1.115,0.822c14.973,11.355,28.123,25.345,38.752,41.6    c2.464,3.769,7.517,4.824,11.286,2.362c3.769-2.464,4.825-7.517,2.362-11.286c-7.568-11.574-16.307-22.094-25.993-31.467h47.421    c4.503,0,8.153-3.65,8.153-8.153V75.839c10.099-3.411,17.393-12.969,17.393-24.204c0-14.086-11.46-25.546-25.546-25.546    c-14.086,0-25.546,11.46-25.546,25.546c0,11.236,7.294,20.793,17.393,24.204v37.214h-58.669    c-28.52-20.769-62.774-32.982-98.953-34.583V49.75c10.099-3.411,17.393-12.969,17.393-24.204C281.546,11.46,270.087,0,256.001,0    c-14.086,0-25.546,11.46-25.546,25.546c0,11.236,7.294,20.793,17.393,24.204v28.71c-54.649,2.421-103.115,29.035-134.911,69.38    H55.44V84.535c10.099-3.411,17.393-12.969,17.393-24.204c0-14.086-11.46-25.546-25.546-25.546s-25.546,11.46-25.546,25.546    c0,11.236,7.294,20.793,17.393,24.204v71.456c0,4.503,3.65,8.153,8.153,8.153h54.193c-17.454,27.933-27.56,60.908-27.56,96.204    c0,15.177,1.878,29.921,5.394,44.026H29.894c-4.503,0-8.153,3.65-8.153,8.153v54.063c-10.099,3.411-17.393,12.969-17.393,24.204    c0,14.086,11.46,25.546,25.546,25.546c14.086,0,25.546-11.46,25.546-25.546c0-11.236-7.294-20.793-17.393-24.204v-45.91h46.159    c18.296,51.945,59.518,93.167,111.463,111.463v46.159h-54.607c-3.411-10.099-12.968-17.393-24.204-17.393    c-14.086,0-25.546,11.46-25.546,25.546c0,14.086,11.46,25.546,25.546,25.546c11.236,0,20.793-7.294,24.204-17.393h62.76    c4.503,0,8.153-3.65,8.153-8.153v-49.419c14.104,3.516,28.848,5.394,44.025,5.394c28.214,0,54.95-6.452,78.811-17.955v37.777    c-10.099,3.411-17.393,12.969-17.393,24.204c0,14.086,11.46,25.546,25.546,25.546s25.546-11.46,25.546-25.546    c0-11.236-7.294-20.793-17.393-24.204v-46.455c0-0.082-0.01-0.16-0.012-0.241c24.487-15.06,45.157-35.747,60.194-60.25    c0.517,0.103,1.051,0.159,1.598,0.159h61.056v52.722c0,0.625,0.077,1.231,0.21,1.814c-10.207,3.35-17.603,12.963-17.603,24.276    c0,14.086,11.46,25.546,25.546,25.546s25.546-11.46,25.546-25.546C507.652,422.963,500.257,413.35,490.05,410.001z     M472.867,173.384c0-5.095,4.145-9.24,9.24-9.24c5.095,0,9.24,4.145,9.24,9.24c0,5.095-4.145,9.24-9.24,9.24    C477.012,182.624,472.867,178.479,472.867,173.384z M420.688,51.635c0-5.095,4.145-9.24,9.24-9.24c5.095,0,9.24,4.145,9.24,9.24    c0,5.095-4.145,9.24-9.24,9.24C424.833,60.875,420.688,56.73,420.688,51.635z M246.761,25.546c0-5.095,4.145-9.24,9.24-9.24    c5.095,0,9.24,4.145,9.24,9.24c0,5.095-4.145,9.24-9.24,9.24C250.906,34.786,246.761,30.641,246.761,25.546z M47.287,69.571    c-5.095,0-9.24-4.145-9.24-9.24c0-5.095,4.145-9.24,9.24-9.24c5.095,0,9.24,4.145,9.24,9.24    C56.527,65.426,52.382,69.571,47.287,69.571z M39.134,390.794c0,5.095-4.145,9.24-9.24,9.24c-5.095,0-9.24-4.145-9.24-9.24    s4.145-9.24,9.24-9.24C34.989,381.554,39.134,385.699,39.134,390.794z M116.858,495.694c-5.095,0-9.24-4.145-9.24-9.24    c0-5.095,4.145-9.24,9.24-9.24c5.095,0,9.24,4.145,9.24,9.24C126.098,491.549,121.953,495.694,116.858,495.694z M352.204,486.454    c0,5.095-4.145,9.24-9.24,9.24s-9.24-4.145-9.24-9.24c0-5.095,4.145-9.24,9.24-9.24S352.204,481.359,352.204,486.454z     M482.107,443.516c-5.095,0-9.24-4.145-9.24-9.24c0-5.095,4.145-9.24,9.24-9.24c5.095,0,9.24,4.145,9.24,9.24    C491.347,439.371,487.202,443.516,482.107,443.516z" fill="#44a4f4" data-original="#000000" style=""/>
	</g>
</g>
<g xmlns="http://www.w3.org/2000/svg">
</g>
<g xmlns="http://www.w3.org/2000/svg">
</g>
<g xmlns="http://www.w3.org/2000/svg">
</g>
<g xmlns="http://www.w3.org/2000/svg">
</g>
<g xmlns="http://www.w3.org/2000/svg">
</g>
<g xmlns="http://www.w3.org/2000/svg">
</g>
<g xmlns="http://www.w3.org/2000/svg">
</g>
<g xmlns="http://www.w3.org/2000/svg">
</g>
<g xmlns="http://www.w3.org/2000/svg">
</g>
<g xmlns="http://www.w3.org/2000/svg">
</g>
<g xmlns="http://www.w3.org/2000/svg">
</g>
<g xmlns="http://www.w3.org/2000/svg">
</g>
<g xmlns="http://www.w3.org/2000/svg">
</g>
<g xmlns="http://www.w3.org/2000/svg">
</g>
<g xmlns="http://www.w3.org/2000/svg">
</g>
</g></svg>
