<?xml version="1.0"?>
<svg xmlns="http://www.w3.org/2000/svg" xmlns:xlink="http://www.w3.org/1999/xlink" xmlns:svgjs="http://svgjs.com/svgjs" version="1.1" width="512" height="512" x="0" y="0" viewBox="0 0 506.459 506.459" style="enable-background:new 0 0 512 512" xml:space="preserve" class=""><g><g xmlns="http://www.w3.org/2000/svg"><path d="m506.322 102.246v230.546l-25.128 7.66h-436.621l-44.436-7.66v-230.546c0-16.917 13.72-30.647 30.647-30.647h444.891c16.927 0 30.647 13.73 30.647 30.647z" fill="#42a5f5" data-original="#8ac9fe" style="" class=""/><path d="m61.431 71.599c-16.927 0-30.647 13.73-30.647 30.647v230.546l-6.903 5.907h-17.388l-6.356-5.907v-230.546c0-16.917 13.72-30.647 30.647-30.647z" fill="#42a5f5" data-original="#60b7ff" style="" class=""/><path d="m203.943 348.113h98.581v136.889h-98.581z" fill="#f5f8f9" data-original="#e8edf2" style="" class=""/><path d="m203.939 348.116h30.647v136.889h-30.647z" fill="#f5f8f9" data-original="#d9e7ec" style="" class=""/><path d="m386.55 475.419v13.04c0 9.94-8.06 18-18 18h-230.63c-9.94 0-18-8.06-18-18v-13.04c0-9.94 8.06-18 18-18h230.63c9.94 0 18 8.06 18 18z" fill="#f5f8f9" data-original="#f5f8f9" style="" class=""/><path d="m506.322 332.793v35.755c0 16.927-13.72 30.647-30.647 30.647h-444.891c-16.927 0-30.647-13.72-30.647-30.647v-35.755z" fill="#f5f8f9" data-original="#f5f8f9" style="" class=""/><path d="m167.95 506.459h-30.03c-9.94 0-18-8.06-18-18v-13.04c0-9.94 8.06-18 18-18h30.03c-10.15 0-18.39 8.24-18.39 18.39v12.26c0 10.16 8.24 18.39 18.39 18.39z" fill="#f5f8f9" data-original="#e8edf2" style="" class=""/><path d="m61.431 399.194h-30.647c-16.927 0-30.647-13.72-30.647-30.647v-35.755h30.647v35.755c0 16.928 13.72 30.647 30.647 30.647z" fill="#f5f8f9" data-original="#e8edf2" style="" class=""/><path d="m243.193 5.661-155.861 257.837c-4.725 7.816.903 17.795 10.037 17.795h311.723c9.133 0 14.761-9.979 10.037-17.795l-155.863-257.837c-4.562-7.548-15.51-7.548-20.073 0z" fill="#ffc107" data-original="#ffe177" style="" class=""/><path d="m253.531 194.199h-.604c-7.732 0-14-6.268-14-14v-97.97c0-7.732 6.268-14 14-14h.604c7.732 0 14 6.268 14 14v97.97c0 7.732-6.268 14-14 14z" fill="#fe646f" data-original="#fe646f" style="" class=""/><ellipse cx="253.23" cy="237.374" fill="#fe646f" rx="13.791" ry="13.714" data-original="#fe646f" style="" class=""/><path d="m128.466 281.296h-30.647c-9.337 0-15.078-10.195-10.256-18.184l155.41-257.097c4.669-7.703 15.844-7.703 20.513 0l5.067 8.387-150.343 248.71c-4.822 7.988.919 18.184 10.256 18.184z" fill="#ffc107" data-original="#ffd15b" style="" class=""/></g></g></svg>
